<?xml version="1.0" encoding="utf-8"?>
<!-- Generator: Adobe Illustrator 25.4.1, SVG Export Plug-In . SVG Version: 6.00 Build 0)  -->
<svg version="1.0" id="Layer_1" xmlns="http://www.w3.org/2000/svg" xmlns:xlink="http://www.w3.org/1999/xlink" x="0px" y="0px"
	 viewBox="0 0 2000 2000" style="enable-background:new 0 0 2000 2000;" xml:space="preserve">
<style type="text/css">
	.st0{display:none;fill:#121725;}
	.st1{fill:none;}
	.st2{fill:#A7DED7;}
	.st3{fill:#FCEFC1;}
	.st4{fill:url(#SVGID_1_);}
	.st5{fill:url(#SVGID_00000133491197686120873440000001094217002243836064_);}
	.st6{fill:#B08448;}
	.st7{fill:url(#SVGID_00000036244185758586345490000014201268318522832013_);}
	.st8{fill:url(#SVGID_00000078023025793183839240000012689149153235081150_);}
	.st9{fill:url(#SVGID_00000041254263593983151010000013131980317137173934_);}
	.st10{fill:url(#SVGID_00000089568132870041359890000016378028286858011550_);}
	.st11{fill:url(#SVGID_00000020365164816693385510000004707878107903135674_);}
	.st12{fill:url(#SVGID_00000149372412047791015720000004534478532464034205_);}
	.st13{fill:url(#SVGID_00000051362205213948455300000011093289555606546055_);}
	.st14{fill:url(#SVGID_00000087391885702220128110000006444068535161804725_);}
	.st15{fill:url(#SVGID_00000001648534289148094290000016713809544530661016_);}
	.st16{fill:url(#SVGID_00000116926484214467914300000017081085144870072222_);}
</style>
<rect class="st0" width="2000" height="2000"/>
<g>
	<path class="st1" d="M1240.4,914.4c-16.6,7.1-19.7,31.2-6.6,41.1c17.9,13.5,48.7,0.7,59.4-14.7c0.6-0.8,0.5-2.2,0.5-3.3
		c0-11.9,0-23.9,0-38.9C1274.7,904.1,1256.8,907.4,1240.4,914.4z"/>
	<path class="st1" d="M1111.5,837.4c-24.1-0.1-40.7,18-40.7,44.9c25.8,0,51.7,0,77.5,0C1148.6,853.9,1135,837.5,1111.5,837.4z"/>
	<path class="st2" d="M940.1,932.9c-3.6,3.1-6.4,5.6-9.2,7.9C886,977.4,818.1,958.1,800,903.1c-8-24.4-8.5-49.5-1-74.4
		c11-36.2,39.5-55.7,76.9-53.7c23.1,1.2,41.9,10.9,58,29.3l6.9-30.8c-1.3-1.9-3.5-3.5-6.3-5c-28.6-16.2-58.9-20.8-90.6-12.9
		c-57.8,14.4-91.4,69-82.2,132.7c8.7,60.2,56,98.4,117.5,94.8c26.2-1.6,50.3-8.8,70.4-27.2C946.3,947.9,943.4,940.8,940.1,932.9z"/>
	<path class="st2" d="M1180,893.2c-0.1-5.6-0.2-11.3-0.8-16.9c-3.6-34.8-28.9-58.3-63.4-59.1c-41.3-0.9-71.4,27-76.5,70.8
		c-4.3,37.7,12,70.8,42.3,86.1c29.9,15,75.3,9.6,97.9-12.1c-1.8-5.5-3.7-11.1-5.5-16.8c-64.5,25.4-103.3,9.4-103.6-44.4
		c36.7,0,72.6,0,108.9,0C1179.6,897.5,1180.1,895.3,1180,893.2z M1070.8,882.3c0-27,16.6-45.1,40.7-44.9
		c23.6,0.1,37.1,16.5,36.8,44.9C1122.5,882.3,1096.6,882.3,1070.8,882.3z"/>
	<path class="st2" d="M1329.8,944.9c0-4.1,0.1-8.3-0.1-12.4c-0.7-25.1,0-50.4-2.6-75.4c-2.2-21.5-16-32.8-37.3-35.6
		c-19.4-2.5-38,0.8-55.5,8.9c-9.1,4.2-13.5,5.8-15.6,8.1l-1.2,20.3v0.2c4.1-1.9,7.9-3.7,11.7-5.5c15.1-7.1,30.7-11.1,47.5-9.8
		c13.2,1.1,21.9,8.2,23.5,21.3c1,8.4,0.2,17,0.2,26.1c-3.6,0.2-6.7,0-9.5,0.7c-20.5,5.1-41.7,8.4-61.1,16.2
		c-20.1,8.1-27.5,26.4-23.5,46c3.8,18.4,18.2,30.7,39,33c22.7,2.4,41.2-6.2,56.7-22.6c12.6,23,26.4,27.7,46.9,17
		c0-6.5,0-12.7,0-18.9C1331.9,964.1,1330,962.3,1329.8,944.9z M1300.9,941.9c0,1.1,0,2.4-0.5,3.3c-10.7,15.3-41.5,28.2-59.4,14.7
		c-13.1-9.9-10-34,6.6-41.1c16.4-7,34.3-10.3,53.4-15.7C1300.9,918,1300.9,930,1300.9,941.9z"/>
	<path class="st2" d="M982.5,867.7c0,36.3,0,72.6,0,109.4c10.1,0,18.9,0,28.5,0c0-76.4,0-151.8,0-228.1c-10.6,3-20.5,5.8-28.5,8.1
		C982.5,794.9,982.5,831.3,982.5,867.7z"/>
	<path class="st2" d="M1394.4,854.1c-0.8-10.6-1.6-21.2-2.5-32c-8.7,0-16.6,0-24.2,0c0,52.2,0,103.5,0,154.9c9.7,0,18.5,0,28.5,0
		c0-32.1-0.3-63,0.3-93.8c0.1-6.2,2.6-13.4,6.4-18.3c13.7-18,32.1-21.7,53.5-14.1c0.8-10.5,1.6-20.4,2.4-30.3
		C1426.4,812.6,1407.8,827.7,1394.4,854.1z"/>
	<path class="st1" d="M1245.1,1064.9c-17.1-3.9-35.1-4-53.7-5.9c0,50.8,0,98.4,0,148.1c17.3-1.4,34.2-1.1,50.3-4.4
		c26.8-5.5,44.3-22.3,49.3-49.8c1.7-9.8,1.4-20.1,1-30C1290.6,1093.6,1273.6,1071.4,1245.1,1064.9z"/>
	<path class="st1" d="M1525.5,1113c-20.3,5.3-25.8,12.1-25.7,31.9c0,6,0,11.9,0,17.9c0,7.8-0.2,15.6,0.1,23.4
		c0.1,4.3-0.4,9.7,1.9,12.6c14.6,18.6,50.3,15.7,61.6-5.3c11.1-20.6,10.1-42.5,0.8-63.4C1557.6,1115.4,1540.8,1109,1525.5,1113z"/>
	<path class="st1" d="M1393.5,1111.1c-17,1.2-28.9,16.5-27.4,35.6c20.3,0,40.6,0,61.7,0C1425.7,1120.8,1414.5,1109.6,1393.5,1111.1z
		"/>
	<path class="st3" d="M1264.8,1048.1c-33-10.7-66.9-3.7-100.4-6.1c0,61.3,0,120.7,0,181.3c16.5,0,32.4,0.1,48.3-0.1
		c9.7-0.1,19.4,0.1,29-1.3c46.8-6.7,72-32.6,78.2-79.3C1325.9,1098.1,1304.4,1060.9,1264.8,1048.1z M1291,1152.8
		c-4.9,27.6-22.5,44.3-49.3,49.8c-16.1,3.3-33,3-50.3,4.4c0-49.7,0-97.3,0-148.1c18.5,1.9,36.5,2,53.7,5.9
		c28.5,6.5,45.5,28.7,46.9,57.9C1292.4,1132.8,1292.8,1143.1,1291,1152.8z"/>
	<path class="st3" d="M1593.8,1132.8c-7.7-23.5-26.6-38.3-51.2-36.6c-14.5,1-28.6,6.9-43,10.6c0-20.1,0-42.5,0-65.9l-24.4,7
		c-0.3,1.3-0.4,2.8-0.4,4.6c0.6,53.2,0.9,106.4,1.3,159.7c0,3.5,0,7,0,14.1c9.9-4.2,17.2-7.3,25-10.6c23.4,19.3,68,15.2,87.1-20.2
		C1598.9,1175.6,1600.9,1154.4,1593.8,1132.8z M1563.3,1193.4c-11.3,21.1-47,24-61.6,5.3c-2.3-2.9-1.8-8.3-1.9-12.6
		c-0.3-7.8-0.1-15.6-0.1-23.4c0-6,0-11.9,0-17.9c-0.1-19.8,5.4-26.6,25.7-31.9c15.3-4,32.1,2.4,38.6,17
		C1573.4,1150.9,1574.4,1172.8,1563.3,1193.4z"/>
	<path class="st3" d="M1423.3,1099.7c-23-9.8-52.1-3.5-68.7,15c-18.4,20.4-21.7,55.6-7.5,80.5c19.6,34.3,68.4,42.5,104.4,16.9
		c-1.2-4.5-2.5-9.2-3.8-14.1c-48.9,22.1-82.9,7.2-82.8-36.3c29.1,0,58.3,0,87.3,0C1455.2,1130,1445.1,1109,1423.3,1099.7z
		 M1366.1,1146.6c-1.5-19.1,10.4-34.4,27.4-35.6c21.1-1.5,32.3,9.8,34.3,35.6C1406.7,1146.6,1386.4,1146.6,1366.1,1146.6z"/>
	<path class="st3" d="M1790.8,1173.6c-4.6-9.6-13.9-16.1-23.6-20.4c-9.7-4.4-20.1-7-29.7-11.6c-4.8-2.3-9.7-5.4-11.7-10.3
		c-2.4-6,0.7-13.2,5.9-17.1c5.2-3.9,12-5,18.4-4.8c12.4,0.4,24.6,5.2,33.9,13.4l-0.6-20.3c-0.1-0.1-0.2-0.3-0.4-0.4
		c-1.5-1.3-3.4-1.8-5.3-2.4c-11.3-3-23.1-4.3-34.8-3.7c-6.4,0.3-12.9,1.3-18.8,3.8c-18.3,7.8-26,34.5-13.3,50.4
		c5.1,6.3,12.7,10,20.1,13.4c9.4,4.4,18.8,8.7,28.2,13.1c3.1,1.4,6.2,2.9,8.5,5.5c4.5,5.2,3.6,13.7-0.8,19
		c-4.4,5.3-11.4,7.9-18.3,8.6c-16.1,1.7-32.9-6.3-41.8-19.9l-2.4,23c0,0.1,0.1,0.2,0.1,0.3c1.9,3.6,5.8,5.7,9.5,7.3
		c15.6,6.6,33.3,7.9,49.7,3.5c7.9-2.1,15.6-5.5,21.1-11.5c4.8-5.2,7.7-12,8.7-19C1794.5,1186.8,1793.7,1179.7,1790.8,1173.6z"/>
	<path class="st3" d="M1673.1,1209.6c-10.7,1.6-20.7-3.7-21-13.4c-1-27.3-0.3-54.7-0.3-83.2c12.8,0,26,0,39.1,0c0-5.5,0-9.8,0-15.3
		c-13.7,0-26.9,0-41,0c0-14.8,0-28.5,0-43.3c-8.9,1.9-16.6,3.6-23.6,5.2c0,7.2-0.1,13.2,0,19.1c0.4,18.2,0.4,18.2-17.8,19.6
		c-0.6,0-1.1,0.8-2,1.5c0,4.1,0,8.4,0,13.8c6.6,0,12.7,0,20,0c0,5,0,9,0,13.1c0.2,22.7-0.2,45.4,0.7,68.1c0.7,18.8,11.2,29.3,30,31
		c6.6,0.6,13.4,0.3,20-0.6c7.8-1,11.7-1.6,13.5-4v-15.9C1684.4,1206.9,1678.8,1208.8,1673.1,1209.6z"/>
	<g>
		<linearGradient id="SVGID_1_" gradientUnits="userSpaceOnUse" x1="206.0759" y1="940.4943" x2="644.0089" y2="940.4943">
			<stop  offset="0" style="stop-color:#215977"/>
			<stop  offset="0.4693" style="stop-color:#20787C"/>
			<stop  offset="1" style="stop-color:#000000"/>
		</linearGradient>
		<path class="st4" d="M446.9,794.1c33.1-14.5,70.6-19.6,106.1-12.6c35.5,7,68.7,26.3,91,54.8c0,0-0.1-0.1-0.1-0.1
			c-38.2-62.6-107-105.6-180.1-112.3c-73.1-6.7-148.7,22.9-197.7,77.6c-3,3.3-5.8,6.7-8.6,10.2c-2.8,3.5-5.4,7.1-8,10.7
			c-2.6,3.6-5,7.4-7.4,11.2c-2.3,3.8-4.6,7.6-6.7,11.6c-2.1,3.9-4.1,7.9-6.1,11.9c-1.9,4-3.7,8.1-5.4,12.2
			c-1.7,4.1-3.3,8.3-4.7,12.5c-1.5,4.2-2.8,8.5-4,12.8c-1.2,4.3-2.3,8.6-3.3,13c-1,4.4-1.9,8.7-2.6,13.1c-0.7,4.4-1.4,8.8-1.9,13.2
			c-0.5,4.4-0.9,8.9-1.1,13.3c-0.3,4.4-0.4,8.9-0.4,13.4c0,4.5,0.1,8.9,0.4,13.4c0.3,4.4,0.6,8.9,1.1,13.3c0.5,4.4,1.2,8.8,1.9,13.2
			c0.3,1.9,0.5,3.7,0.4,5.7c-0.1,1.7,0.2,3.2,0.8,4.8c1.6,3.9,3.5,7.8,5.3,11.6c0,0,0,0,0,0.1c1.9,3.8,3.9,7.6,6,11.2
			c2.1,3.7,4.3,7.3,6.5,10.9c2.3,3.6,4.6,7.1,7.1,10.6c2.5,3.5,5,6.8,7.7,10.2c2.6,3.3,5.4,6.6,8.2,9.8c2.8,3.2,5.7,6.3,8.7,9.3
			c3,3,6,6,9.1,8.9c3.1,2.9,6.3,5.7,9.6,8.4c3.3,2.7,6.6,5.4,10,7.9c3.4,2.6,6.8,5,10.4,7.4c3.5,2.4,7.1,4.7,10.7,6.8
			c3.6,2.2,7.3,4.3,11.1,6.3c3.7,2,7.5,3.9,11.4,5.7c3.8,1.8,7.7,3.5,11.7,5.1c3.2,1.3,6.5,2.5,9.8,3.7c42.8,15,89.9,17.3,134.2,7.4
			c22.8-5.1,44.8-13.3,65.2-24.7c-56.3,19.1-122.4,3.6-165.5-37.4c-43.1-40.9-62.1-105.1-49.8-163.3
			C350.1,868.5,392.5,818,446.9,794.1z"/>
		
			<linearGradient id="SVGID_00000103943311167428305610000003220552645634112175_" gradientUnits="userSpaceOnUse" x1="206.335" y1="1094.1782" x2="666.4875" y2="1094.1782">
			<stop  offset="0" style="stop-color:#339593"/>
			<stop  offset="1" style="stop-color:#1A7A7A"/>
		</linearGradient>
		<path style="fill:url(#SVGID_00000103943311167428305610000003220552645634112175_);" d="M535.9,1135.6c-5.4,2.6-11,5-16.6,7.2
			c-43.8,16.8-92.8,17.8-138.3,6.7c-42.8-10.5-83.1-31.7-114.5-62.6s-53.4-71.6-60.1-115.1c0.6,14.5,1.5,29,4,43.4
			c2.7,15.5,8.3,30.4,14.3,44.8c5.8,13.8,12.8,27.2,20.8,39.9c4.4,7.1,9.2,14,14.2,20.7c14.9,19.7,32.5,37.5,52.3,52.2
			c17.7,13.1,37.3,23.8,58,31.3c62.4,22.4,134.7,15.1,191.4-19.4c56.6-34.5,96.3-95.4,105.1-161.2
			C627.9,1066.3,587.4,1110.6,535.9,1135.6z"/>
		<path class="st1" d="M375.1,848.2c4.1-4.8,8.4-9.3,12.7-13.6c6.7-6.7,13.8-12.9,21.4-18.6C396.6,825.3,385.1,836.1,375.1,848.2z"
			/>
		<path class="st6" d="M643.9,835.9c-22.3-27-53.7-46.2-87.7-53.9c-43.4-9.8-90-0.6-128.5,21.7c-6.4,3.7-12.6,7.8-18.5,12.2
			c-7.5,5.7-14.7,11.9-21.4,18.6c-4.3,4.3-8.6,8.9-12.7,13.6c-7,8.4-13.2,17.4-18.6,26.9c1.2-1.2,2.4-2.4,3.6-3.6
			c13.3-13.1,27-26.1,42-37.3c14.8-11,31-20.2,48.8-25.3c19.4-5.6,39.9-6.2,60-4.1c16.5,1.7,33,5.2,48.1,12
			c30.4,13.6,53.5,39.2,75.7,64.2c8.1-7.5,16.1-15,24.2-22.5C654.6,850.5,649.6,842.9,643.9,835.9z"/>
		<path class="st6" d="M354.8,876.7c0.5-0.6,1.1-1.1,1.7-1.7c5.4-9.5,11.6-18.5,18.6-26.9C367.4,857.1,360.4,866.6,354.8,876.7z"/>
		
			<linearGradient id="SVGID_00000053530837221796011900000005151527133454050697_" gradientUnits="userSpaceOnUse" x1="205.5599" y1="862.4508" x2="644.0377" y2="862.4508">
			<stop  offset="0" style="stop-color:#215977"/>
			<stop  offset="0.4693" style="stop-color:#20787C"/>
			<stop  offset="1" style="stop-color:#000000"/>
		</linearGradient>
		<path style="fill:url(#SVGID_00000053530837221796011900000005151527133454050697_);" d="M354.8,876.7c0.5-0.6,1.1-1.1,1.7-1.7
			c5.4-9.5,11.6-18.5,18.6-26.9C367.4,857.1,360.4,866.6,354.8,876.7z"/>
		<path class="st6" d="M564.4,783.9c-39.6-11-83-6.4-120.3,11c-4.6,2.2-9.2,4.5-13.6,7c-7.4,4.2-14.5,8.9-21.2,14
			c6-4.4,12.1-8.5,18.5-12.2c38.5-22.3,85.1-31.5,128.5-21.7c34,7.7,65.4,26.9,87.7,53.9c0,0,0,0,0,0
			C623.7,810.9,595.3,792.5,564.4,783.9z"/>
		
			<linearGradient id="SVGID_00000008868044422645792230000018052720892766096812_" gradientUnits="userSpaceOnUse" x1="205.5599" y1="806.9626" x2="644.0377" y2="806.9626">
			<stop  offset="0" style="stop-color:#215977"/>
			<stop  offset="0.4693" style="stop-color:#20787C"/>
			<stop  offset="1" style="stop-color:#000000"/>
		</linearGradient>
		<path style="fill:url(#SVGID_00000008868044422645792230000018052720892766096812_);" d="M564.4,783.9c-39.6-11-83-6.4-120.3,11
			c-4.6,2.2-9.2,4.5-13.6,7c-7.4,4.2-14.5,8.9-21.2,14c6-4.4,12.1-8.5,18.5-12.2c38.5-22.3,85.1-31.5,128.5-21.7
			c34,7.7,65.4,26.9,87.7,53.9c0,0,0,0,0,0C623.7,810.9,595.3,792.5,564.4,783.9z"/>
	</g>
	<path class="st3" d="M950.4,1043c0-0.1,0-0.2,0-0.3c-10.8,0-21.7,0-32.5,0c-17.6,46.8-35.2,93.6-52.9,140.4
		c-18.9-46.8-37.5-93.8-55.6-141c-3.2,0-6.3,0-9.5,0s-6.3,0-9.5,0s-6.3,0-9.5,0c-1.6,0-3.2,0-4.7,0c-0.4,0-0.8,0-1.2,0
		c-0.2,0-0.4,0-0.6,0c-0.1,0-0.1,0-0.1,0.1c0,0.1,0,0.2,0,0.3c0,0.8-0.1,1.6-0.1,2.4c-0.2,3.2-0.4,6.3-0.6,9.5
		c-0.2,3.2-0.4,6.3-0.6,9.5c-0.2,3.2-0.4,6.3-0.6,9.5c-0.2,3.2-0.4,6.3-0.6,9.5c-0.2,3.2-0.4,6.3-0.6,9.5c-0.2,3.2-0.4,6.3-0.6,9.5
		c-0.2,3.2-0.4,6.3-0.6,9.5c-0.2,3.2-0.4,6.3-0.6,9.5c-0.2,3.2-0.4,6.3-0.6,9.5c-0.2,3.2-0.4,6.3-0.6,9.5s-0.4,6.3-0.6,9.5
		c-0.2,3.2-0.4,6.3-0.6,9.5c-0.2,3.2-0.4,6.3-0.6,9.5c-0.2,3.2-0.4,6.3-0.6,9.5c-0.2,3.2-0.4,6.3-0.6,9.5c-0.2,3.2-0.4,6.3-0.6,9.5
		c-0.2,3.2-0.4,6.3-0.6,9.5c-0.2,3.2-0.4,6.3-0.6,9.5c-0.1,2.5-0.3,5-0.4,7.6c6.5,0,13,0,19.5,0c3.4-50.3,6.7-100.6,10.1-150.9
		c19.1,50.4,38.1,100.9,57.2,151.3c6.5,0,12.9,0,19.4,0c18.8-50.1,37.6-100.2,56.3-150.3c3.8,50,7.5,100,11.3,149.9
		c9.4,0,18.9,0,28.3,0C960.7,1162.7,955.5,1102.8,950.4,1043z"/>
	<path class="st3" d="M1073.1,1098.9c-11.6,28.2-23.1,56.4-34.7,84.6c-12.4-28.2-24.7-56.4-37.1-84.6h-28.3
		c2.7,9.2,8.3,18.4,12.2,27.1c4.3,9.6,8.6,19.1,13,28.7c4.2,9.3,8.5,18.7,12.7,28c2.1,4.7,4.2,9.3,6.3,14c1.1,2.4,2.2,4.9,3.3,7.3
		c0.8,1.7,3,4.9,3,6.7c0.9,2,1.8,4,1.8,6.2c0,1.8-0.6,3.5-1.2,5.1c-2.8,7.6-6.1,15-10,22.1c-1.7,3.1-3.6,6.2-6.5,8.1
		c-5.9,3.8-13.6,1.4-20.5,2.5c-0.1,0-0.2,0-0.3,0.1l-4.1,21.2c10.8,1.4,22.4,2.1,31.8-3.4c9.8-5.8,14.8-17.1,19.1-27.7
		c19.9-48.7,39.9-97.4,59.8-146.1H1073.1z"/>
</g>
</svg>
